<svg xmlns="http://www.w3.org/2000/svg" width="46" height="40" fill="none" xmlns:v="https://vecta.io/nano"><path d="M30.287 27.243H14.81a5.56 5.56 0 0 1-5.493 4.692 5.56 5.56 0 0 1-5.493-4.692H1.886a1.87 1.87 0 0 1-1.857-1.876V1.877A1.87 1.87 0 0 1 1.886 0h25.551a1.87 1.87 0 0 1 1.856 1.877v1.905h7.121a.9.9 0 0 1 .238.031c2.3.2 3.457 1.4 4.677 3.462l3.559 6.094c.085.145.13.309.13.477v12.458c.001.248-.096.485-.27.661s-.411.276-.659.277h-2.814a5.56 5.56 0 0 1-5.494 4.692 5.56 5.56 0 0 1-5.493-4.692l-.001.001zm1.778-.939c.008.733.232 1.447.645 2.053s.996 1.076 1.675 1.351 1.425.343 2.143.195 1.376-.505 1.892-1.026.866-1.183 1.006-1.902.065-1.464-.218-2.141-.758-1.254-1.368-1.661-1.327-.624-2.059-.624a3.74 3.74 0 0 0-3.716 3.755zm-26.464 0c.008.733.232 1.447.645 2.053s.996 1.076 1.675 1.351 1.425.343 2.143.195 1.376-.505 1.892-1.026.866-1.183 1.006-1.902.064-1.464-.218-2.141-.758-1.254-1.368-1.661-1.326-.624-2.059-.624A3.74 3.74 0 0 0 5.6 26.304h.001zm35.672-.938h1.886v-5.618h-2.736c-.123-.001-.244-.025-.357-.073a.93.93 0 0 1-.302-.204c-.086-.087-.154-.19-.201-.304s-.07-.235-.069-.358v-1.847a2.82 2.82 0 0 1 .77-1.938h-6.379c-.077 0-.154-.01-.229-.029-.705-.063-1.36-.388-1.837-.911s-.74-1.206-.737-1.913v-4.7c-.001-.123.023-.244.069-.358s.115-.217.201-.304.189-.157.302-.204.234-.072.357-.073h6.483c-.344-.319-.752-.562-1.196-.713s-.915-.208-1.382-.166h-6.623v19.708h.994a5.56 5.56 0 0 1 5.494-4.692 5.56 5.56 0 0 1 5.493 4.692l-.001.004zm-26.464 0h12.627V1.876H1.886v23.49h1.937a5.56 5.56 0 0 1 5.494-4.692 5.56 5.56 0 0 1 5.493 4.692h-.001zm26.542-8.4v.909h1.808v-1.847h-.879c-.247.002-.483.101-.657.276s-.271.412-.271.659l-.001.003zm-8.413-4.792c-.001.252.098.495.276.675s.419.281.671.283a.89.89 0 0 1 .19.02H42.6l-2.766-4.736h-6.9l.004 3.758zm.093 14.132c-.003-.733.285-1.436.8-1.957s1.216-.816 1.949-.82a.94.94 0 0 1 .938.938.94.94 0 0 1-.938.938.9.9 0 0 0-.837.55.9.9 0 0 0 .19.984.9.9 0 0 0 .982.199.9.9 0 0 0 .557-.832.93.93 0 0 1 .928-.928.93.93 0 0 1 .928.928 2.75 2.75 0 0 1-2.75 2.75 2.75 2.75 0 0 1-2.75-2.75l.002.001zm-26.464 0c-.003-.733.285-1.436.8-1.957s1.216-.816 1.949-.82a.94.94 0 0 1 .938.938.94.94 0 0 1-.938.938.9.9 0 0 0-.837.55.9.9 0 0 0 .19.984.9.9 0 0 0 .982.199.9.9 0 0 0 .557-.832.93.93 0 0 1 .928-.928.93.93 0 0 1 .929.928 2.75 2.75 0 0 1-2.75 2.75 2.75 2.75 0 0 1-2.75-2.75l.002.001zM4.709 5.66a.94.94 0 0 1-.938-.938.94.94 0 0 1 .938-.938h19.9a.94.94 0 0 1 .938.938.94.94 0 0 1-.938.938h-19.9z" fill="#f16d7f"/></svg>