<svg xmlns="http://www.w3.org/2000/svg" width="44" height="38" fill="none" xmlns:v="https://vecta.io/nano"><path d="M19.494 33.648a15.5 15.5 0 0 0 19.805-23.167 15.5 15.5 0 0 0-26.805 14.507L2.009 18.934l-2 3.464zm13.5-23.383c5.5 3.176 7.385 10.209 4.209 15.709s-10.209 7.385-15.709 4.209-7.385-10.209-4.209-15.709 10.209-7.385 15.709-4.209z" fill="#f1d9dd"/><path d="M14.452 29.051a15.5 15.5 0 0 0 29.511-7.618 15.5 15.5 0 0 0-30.278-3.491L8.569 6.968l-3.625 1.69zm24.47-11.411c2.684 5.756.194 12.598-5.562 15.283s-12.598.194-15.283-5.562-.194-12.598 5.562-15.283 12.598-.194 15.283 5.562z" fill="#fcbac3"/><path d="M13 22.5a15.5 15.5 0 1 0 4-10.392V0h-4zm27 0a11.5 11.5 0 1 1-23 0 11.5 11.5 0 1 1 23 0z" fill="#f16d7f"/></svg>