<svg width="44" height="38" viewBox="0 0 44 38" fill="none" xmlns="http://www.w3.org/2000/svg">
  <path
    d="M13 22.5A 15.5 15.5, 0, 1, 0, 17 12.1077 L 17 0 L 13 0Z M 40 22.5 A 11.5 11.5, 0, 1, 1, 17 22.5 A 11.5 11.5, 0, 1, 1, 40 22.5Z"
    transform="translate(0 -3) rotate(-60 28.5 23.95)" fill="#F1D9DD" />
  <path
    d="M13 22.5A 15.5 15.5, 0, 1, 0, 17 12.1077 L 17 0 L 13 0Z M 40 22.5 A 11.5 11.5, 0, 1, 1, 17 22.5 A 11.5 11.5, 0, 1, 1, 40 22.5Z"
    transform="rotate(-25 28.5 22.5)" fill="#FCBAC3" />
  <path
    d="M13 22.5A 15.5 15.5, 0, 1, 0, 17 12.1077 L 17 0 L 13 0Z M 40 22.5 A 11.5 11.5, 0, 1, 1, 17 22.5 A 11.5 11.5, 0, 1, 1, 40 22.5Z"
    fill="#F16D7F" />
</svg>