<svg xmlns="http://www.w3.org/2000/svg" width="48" height="40" fill="none" xmlns:v="https://vecta.io/nano"><path d="M42.394 8.536a4.6 4.6 0 0 0-4.646 4.533c.003.64.144 1.272.413 1.852s.66 1.097 1.147 1.512l-5.86 2.055-8.339-9.683c.895-.299 1.675-.869 2.231-1.632s.86-1.68.869-2.624c-.025-1.215-.526-2.372-1.394-3.223S24.779 0 23.564 0s-2.383.476-3.251 1.327-1.369 2.007-1.394 3.223c.01.934.307 1.843.852 2.602s1.311 1.332 2.193 1.64l-8.352 9.7-5.858-2.055c.486-.416.877-.932 1.146-1.513s.409-1.212.412-1.852c.023-.877-.203-1.742-.651-2.496S7.561 9.21 6.78 8.811s-1.659-.569-2.533-.49-1.707.404-2.403.937S.615 10.51.31 11.332s-.372 1.714-.191 2.572.6 1.648 1.21 2.278 1.386 1.075 2.238 1.282v12.291c.007.082.024.163.05.241-.033.127-.05.257-.05.388 0 4.412 17.919 4.542 19.962 4.542s19.962-.129 19.962-4.542a1.6 1.6 0 0 0-.05-.388.9.9 0 0 0 .05-.241V17.465c1.099-.24 2.069-.882 2.719-1.799s.936-2.045.799-3.161-.685-2.142-1.538-2.875-1.949-1.122-3.073-1.09l-.004-.003zM21.175 4.552c-.012-.474.118-.941.374-1.341s.624-.715 1.058-.904.916-.245 1.383-.16.897.308 1.237.639.573.756.669 1.22.053.947-.126 1.386-.484.815-.878 1.08-.857.406-1.331.407a2.36 2.36 0 0 1-2.386-2.328zm-7.59 16.276c.217.075.451.084.673.025s.421-.182.573-.355l8.7-10.1 8.7 10.1c.151.173.35.296.572.355s.456.051.673-.024l7.758-2.725v9.937c-4.885-2.122-16.109-2.2-17.7-2.2s-12.819.079-17.7 2.2v-9.937l7.751 2.724zm9.943 11.889c-8.7 0-14.249-1.011-16.557-1.862a4.63 4.63 0 0 1-1-.474c.722-.521 3.061-1.232 6.966-1.732a93.17 93.17 0 0 1 21.175 0c3.9.5 6.245 1.211 6.965 1.732a4.43 4.43 0 0 1-.995.474c-2.302.849-7.846 1.862-16.554 1.862zM2.281 13.069c-.011-.474.119-.941.375-1.34s.624-.714 1.059-.904.916-.245 1.383-.159.897.308 1.236.64.572.756.669 1.22.053.947-.126 1.386-.485.815-.878 1.08-.857.406-1.331.406a2.36 2.36 0 0 1-2.386-2.33zm40.113 2.33a2.33 2.33 0 0 1-2.11-1.476 2.33 2.33 0 0 1 .54-2.518 2.33 2.33 0 0 1 2.53-.48 2.33 2.33 0 0 1 1.426 2.145 2.36 2.36 0 0 1-2.386 2.329v.001z" fill="#f16d7f"/></svg>